<svg xmlns="http://www.w3.org/2000/svg" viewBox="0 0 780 500" width="780" height="500">
  <rect width="780" height="500" rx="40" fill="#000"/>
  <g fill="#fff">
    <path d="M233.4 185.5c-8.5 10-22.2 17.8-35.9 16.7-1.7-13.7 5-28.3 12.8-37.3 8.5-10.5 23.5-17.3 35.6-17.8 1.5 14.2-4.2 28.2-12.5 38.4zm12.3 19.5c-19.8-1.2-36.7 11.2-46.1 11.2s-23.9-10.7-39.5-10.3c-20.3.3-39 11.8-49.5 30-21.2 36.5-5.5 90.7 15 120.3 10 14.5 22 30.8 37.7 30.3 15-0.7 20.8-9.8 39-9.8s23.3 9.8 39.3 9.5c16.3-.3 26.5-14.5 36.5-29 11.3-16.7 16-32.8 16.3-33.7-.3-.2-31.3-12-31.7-47.5-.2-29.7 24.2-43.8 25.3-44.7-13.8-20.3-35.3-22.5-42.8-23.3v1z"/>
    <path d="M421.3 160.5v218h33.8v-74.6h46.8c42.8 0 72.8-29.4 72.8-72 0-42.5-29.3-71.4-71.6-71.4zm33.8 28.8h39c29.4 0 46.2 15.7 46.2 43.3 0 27.5-16.8 43.3-46.3 43.3h-38.9zm181.6 191.7c21.3 0 41-10.7 50-27.7h.7v26.2h31.3V261.8c0-31.5-25.1-51.7-63.8-51.7-36 0-63 20.5-64 48.7h30.5c3.8-13.3 16.5-22.2 32.5-22.2 21 0 32.8 9.8 32.8 27.8V279l-42.8 2.5c-39.8 2.3-61.3 18.7-61.3 47 0 28.7 22.2 47.5 54.1 47.5zm9-26c-18.3 0-30-8.8-30-22.3 0-13.8 11.3-21.8 32.8-23l38.1-2.3v14.2c0 19.4-16.3 33.4-40.9 33.4z"/>
    <path d="M711 387.5l3.8-25.5c-2-.7-7-1.5-11.3-1.5-16 0-25 8.5-28.7 24.2h-.7l-3.7-22.7h-29.5v216h33.5v-108c0-20.5 9.8-33.2 28.5-33.2 5.5 0 6.3.5 8.1.7z" transform="translate(-40 -180)"/>
  </g>
</svg>
