<svg xmlns="http://www.w3.org/2000/svg" viewBox="0 0 780 500" width="780" height="500">
  <rect width="780" height="500" rx="40" fill="#fff" stroke="#e0e0e0" stroke-width="2"/>
  <g transform="translate(130, 120) scale(2.2)">
    <path d="M117.5 57.2c0-4-0.3-7.8-1-11.5H60v21.8h32.3c-1.4 7.4-5.6 13.7-11.9 17.9v14.8h19.2c11.3-10.4 17.9-25.7 17.9-43z" fill="#4285F4"/>
    <path d="M60 118c16.1 0 29.6-5.3 39.5-14.4l-19.2-14.8c-5.3 3.6-12.2 5.7-20.2 5.7-15.5 0-28.7-10.5-33.4-24.6H6.8v15.3C16.6 104.7 36.8 118 60 118z" fill="#34A853"/>
    <path d="M26.6 70c-1.2-3.6-1.9-7.4-1.9-11.3s0.7-7.8 1.9-11.3V32H6.8C2.5 40.5 0 50 0 60s2.5 19.5 6.8 28l19.8-18z" fill="#FBBC05"/>
    <path d="M60 23.4c8.8 0 16.6 3 22.8 8.9l17-17C89.5 5.9 76.1 0 60 0 36.8 0 16.6 13.3 6.8 32l19.8 15.4C31.3 33.9 44.5 23.4 60 23.4z" fill="#EA4335"/>
  </g>
  <g fill="#5F6368" transform="translate(310, 175)">
    <path d="M26.6 66.8c-10.5 0-19.6-4.2-26.1-11v15.6h-0.1v28.2H13v-20c6.2 5.3 14.2 8.5 23 8.5 19.8 0 35.8-16 35.8-35.8H59.1c-2.7 11.3-12.8 19.7-25 19.7l-7.5-5.2z"/>
    <text font-family="Arial, sans-serif" font-size="68" font-weight="500" x="-2" y="58">Pay</text>
  </g>
</svg>
