<svg xmlns="http://www.w3.org/2000/svg" viewBox="0 0 780 500" width="780" height="500">
  <rect width="780" height="500" rx="40" fill="#1A1F71"/>
  <path d="M293.2 348.7l33.4-195.8h53.4l-33.4 195.8zM541.7 156.5c-10.6-4-27.2-8.3-47.9-8.3-52.8 0-90 26.6-90.2 64.7-.3 28.2 26.5 43.9 46.8 53.3 20.8 9.6 27.8 15.7 27.7 24.3-.1 13.1-16.6 19.1-32 19.1-21.4 0-32.7-3-50.3-10.2l-6.9-3.1-7.5 43.8c12.5 5.5 35.6 10.2 59.6 10.5 56.2 0 92.6-26.3 93-67.1.2-22.4-14.1-39.4-45-53.4-18.7-9.1-30.2-15.2-30.1-24.4 0-8.2 9.7-16.9 30.7-16.9 17.5-.3 30.2 3.5 40.1 7.5l4.8 2.3 7.2-42.1zM666.3 152.9h-41.3c-12.8 0-22.4 3.5-28 16.3L508 348.7h56.2s9.2-24.1 11.3-29.4h68.6c1.6 6.9 6.5 29.4 6.5 29.4h49.7l-34-195.8zm-65.9 126c4.4-11.3 21.5-54.7 21.5-54.7-.3.5 4.4-11.4 7.1-18.8l3.6 17s10.3 47.2 12.5 57.1h-44.7v-.6zM231.5 152.9L179.2 285l-5.6-27.1c-9.7-31.3-39.9-65.2-73.7-82.2l47.9 171.9 56.6-.1 84.2-195.6h-57.1z" fill="#fff"/>
  <path d="M146.9 152.9H59.6l-.7 3.8c67.1 16.2 111.5 55.4 129.9 102.4L171.2 169c-3.1-12.5-12.6-16-24.3-16.1z" fill="#F7B600"/>
</svg>
